<svg
  xmlns="http://www.w3.org/2000/svg"
  width="2000"
  height="2000"
  version="1"
  viewBox="0 0 1500 1500"
>
  <path
    d="M631 10509l2-549 291-1c160 0 326-2 369-4 329-19 514-169 587-477 18-78 23-102 35-188 6-40 13-265 20-655 2-148 7-283 9-300 3-16 8-48 11-70 19-155 69-291 151-415 35-53 191-249 287-360 51-59 176-219 206-262 32-48 102-187 116-230l11-33c6-19 36-130 40-150 4-21 11-60 19-110 23-146 23-935 0-1077-2-13-6-41-9-63-44-304-169-488-381-560-27-9-61-19-75-21s-34-6-45-9c-65-14-267-18-917-18H631l1-549 1-549 1046 4c575 2 1062 7 1081 10 19 4 60 9 90 12 87 8 94 9 264 40 138 26 313 83 437 143 128 62 235 137 330 232 101 101 161 182 222 305 98 196 136 343 172 665 28 248 29 1656 1 1810-3 14-7 43-11 65-56 391-182 684-396 928-30 34-76 86-104 117-325 364-333 380-335 733-1 262-9 494-25 717-10 157-46 345-90 475-90 269-209 438-435 619-94 74-383 205-512 230-12 2-52 11-88 20-36 8-83 18-105 21s-65 10-95 15-82 12-115 15c-33 4-73 9-90 11-16 2-303 6-638 8l-608 5 2-550zM4926 11051c-7-12-3-1082 4-1086 4-2 313-5 686-6 373 0 704-5 734-9 110-17 135-22 190-42 116-43 209-125 269-238 30-57 66-155 75-206 3-16 8-40 11-54 12-58 17-99 31-240 7-78 7-3356 0-3420-3-25-8-74-11-110-21-218-94-414-194-517-57-60-162-114-267-139-100-23-217-27-889-28l-640-1-1-548-1-548 926 2c509 1 960 5 1001 10s102 11 135 14c68 7 77 8 195 29 508 90 834 297 1039 661 61 107 139 343 157 475 1 8 4 29 8 45 5 29 13 87 21 170 16 165 20 555 20 2195 0 1612-3 1991-19 2180-5 55-18 163-22 185-3 11-7 36-10 55s-10 53-16 75c-5 22-12 50-14 63-12 63-72 219-121 312-124 237-302 405-554 524-128 61-296 115-437 141-15 3-36 7-47 9s-42 7-68 10c-27 4-58 9-68 11-11 2-55 7-97 11s-90 9-107 11c-49 7-1915 11-1919 4zM9306 11051c-2-3-3-1623-3-3598V3860h1497l-2 3597-3 3598-743 1c-408 1-744-2-746-5zM12603 8476c0-2752-1-2787-39-2976-57-279-181-441-384-499-128-37-199-43-540-45l-245-1-2-549-3-548 573 5c327 3 608 10 657 16 47 6 103 14 125 16 22 3 63 10 90 15 28 6 61 12 75 15 68 13 91 18 170 41 199 58 390 151 510 249 14 11 61 56 105 100 224 224 343 527 380 970 3 33 8 89 12 125 3 36 8 1321 10 2856l4 2791h-1498V8476z"
    transform="matrix(.1 0 0 -.1 0 1500)"
  ></path>
</svg>